<svg width="406" height="78" viewBox="0 0 406 78" fill="none" xmlns="http://www.w3.org/2000/svg">
<path d="M43.9432 21.0614H58.0909C57.8864 8.6182 47.6591 0.0272884 32.1136 0.0272884C16.8068 0.0272884 5.59091 8.48183 5.65909 21.1637C5.625 31.4591 12.8864 37.3568 24.6818 40.1864L32.2841 42.0955C39.8864 43.9364 44.1136 46.1182 44.1477 50.8227C44.1136 55.9364 39.2727 59.4137 31.7727 59.4137C24.1023 59.4137 18.5795 55.8682 18.1023 48.8796H3.81818C4.19318 63.9818 15 71.7887 31.9432 71.7887C48.9886 71.7887 59.0114 63.6409 59.0455 50.8568C59.0114 39.2318 50.25 33.0614 38.1136 30.3341L31.8409 28.8341C25.7727 27.4364 20.6932 25.1864 20.7955 20.175C20.7955 15.675 24.7841 12.3682 32.0114 12.3682C39.0682 12.3682 43.3977 15.5727 43.9432 21.0614Z" fill="black"/>
<path d="M132.318 41.7273C132.352 34.9773 136.375 31.0227 142.239 31.0227C148.068 31.0227 151.58 34.8409 151.545 41.25V72H166.068V38.6591C166.068 26.4546 158.909 18.9546 148 18.9546C140.227 18.9546 134.602 22.7727 132.25 28.875H131.636V19.6364H117.795V72H132.318V41.7273ZM177.241 72H221.253V60.4091H196.298V60.0341L220.366 29.0796V19.6364H178.128V31.2273H202.878V31.6023L177.241 63.3409V72ZM265.938 49.7046C265.972 56.7273 261.165 60.4091 255.949 60.4091C250.46 60.4091 246.915 56.5568 246.881 50.3864V19.6364H232.358V52.9773C232.392 65.2159 239.551 72.6818 250.085 72.6818C257.96 72.6818 263.619 68.625 265.972 62.4887H266.517V72H280.46V19.6364H265.938V49.7046ZM357.693 2.18183V46.2614C357.693 54.2387 352.102 60 343.511 60C334.955 60 329.33 54.2387 329.33 46.2614V2.18183H314.568V47.5227C314.568 62.7955 326.091 72.9887 343.511 72.9887C360.864 72.9887 372.455 62.7955 372.455 47.5227V2.18183H357.693ZM399.361 2.18183H384.599V72H399.361V2.18183Z" fill="black"/>
<path d="M70.1853 22.76C73.6913 17.5503 79.9817 15.2133 86.8785 17.4616C93.7752 19.7099 93.2373 30.6408 94.8632 36.3313C96.4891 42.0218 107.339 45.9755 109.657 51.8261C111.489 56.4477 112.229 61.7613 104.401 68.1303C99.3014 70.811 97.3328 71.9886 88.0027 70.0035C77.6344 65.8018 76.4105 62.1749 73.2802 58.4547C72.3505 56.6257 66.8241 48.8382 66.1846 36.8326C66.5485 31.706 66.6793 27.9697 70.1853 22.76Z" fill="#AAD136" stroke="black" stroke-width="2"/>
<path d="M100.71 55.0945C99.0041 56.2314 88.4444 62.3244 75.6544 59.6321C78.1863 64.8231 86.7497 69.402 93.9013 70.1813C97.4517 70.5681 107.802 67.7105 109.65 58.5017C107.581 50.9551 102.415 53.9576 100.71 55.0945Z" fill="#90BD11"/>
<path d="M76.6536 21.536C85.1268 20.9145 87.2368 20.878 89.6509 31.2" stroke="black" stroke-linecap="round"/>
<path d="M93.3195 31.9013C89.5205 34.8098 93.9098 42.4287 96.186 43.2822C98.4622 44.1358 99.2881 43.555 99.5726 43.2705" stroke="black"/>
</svg>
