<svg width="372" height="72" viewBox="0 0 372 72" fill="none" xmlns="http://www.w3.org/2000/svg">
<path d="M23.616 67.048C19.904 67.048 16.352 66.632 12.96 65.8C9.632 64.968 6.752 63.848 4.32 62.44L5.472 49.576C8.352 51.368 11.36 52.776 14.496 53.8C17.696 54.76 20.64 55.24 23.328 55.24C26.4 55.24 28.896 54.6 30.816 53.32C32.736 52.04 33.696 50.344 33.696 48.232C33.696 46.504 33.056 45.192 31.776 44.296C30.496 43.336 28.48 42.312 25.728 41.224L23.424 40.264C23.104 40.136 22.752 40.008 22.368 39.88C21.984 39.688 21.536 39.496 21.024 39.304C17.44 37.832 14.56 36.456 12.384 35.176C10.208 33.832 8.32 31.976 6.72 29.608C5.184 27.24 4.416 24.168 4.416 20.392C4.416 14.248 6.496 9.416 10.656 5.896C14.816 2.376 20.608 0.616001 28.032 0.616001C33.664 0.616001 39.424 1.768 45.312 4.072L43.2 16.744C40.832 15.4 38.272 14.344 35.52 13.576C32.832 12.808 30.272 12.424 27.84 12.424C24.832 12.424 22.496 13.032 20.832 14.248C19.168 15.4 18.336 16.968 18.336 18.952C18.336 20.68 18.912 22.024 20.064 22.984C21.216 23.944 23.072 24.968 25.632 26.056L29.568 27.592C33.28 29 36.352 30.376 38.784 31.72C41.216 33.064 43.296 35.016 45.024 37.576C46.752 40.072 47.616 43.336 47.616 47.368C47.616 53.576 45.504 58.408 41.28 61.864C37.056 65.32 31.168 67.048 23.616 67.048Z" fill="black"/>
<path d="M99.24 17.56H112.488V26.104C114.536 22.712 116.904 20.216 119.592 18.616C122.28 17.016 125.416 16.216 129 16.216C134.312 16.216 138.472 17.816 141.48 21.016C144.488 24.152 145.992 28.536 145.992 34.168V67H132.456V36.28C132.456 33.72 131.816 31.736 130.536 30.328C129.256 28.856 127.528 28.12 125.352 28.12C122.792 28.12 120.36 29.08 118.056 31C115.752 32.92 113.992 35.352 112.776 38.296V67H99.24V17.56ZM155.429 58.072L179.141 29.176H157.061V17.56H195.653V26.392L172.037 55.384H195.653V66.904H155.429V58.072ZM222.25 68.344C217.002 68.344 212.874 66.744 209.866 63.544C206.858 60.344 205.354 55.96 205.354 50.392V17.56H218.89V48.184C218.89 50.808 219.53 52.856 220.81 54.328C222.09 55.736 223.818 56.44 225.994 56.44C228.17 56.44 230.25 55.736 232.234 54.328C234.282 52.92 235.978 51.032 237.322 48.664V17.56H250.858V67H237.322V60.472C235.466 62.968 233.322 64.92 230.89 66.328C228.522 67.672 225.642 68.344 222.25 68.344ZM309.689 68.248C304.377 68.248 299.705 67.128 295.673 64.888C291.641 62.648 288.505 59.512 286.265 55.48C284.089 51.384 283.001 46.68 283.001 41.368V3.064H297.017V40.312C297.017 45.048 298.137 48.824 300.377 51.64C302.681 54.392 305.785 55.768 309.689 55.768C313.593 55.768 316.697 54.392 319.001 51.64C321.305 48.824 322.457 45.048 322.457 40.312V3.064H336.377V41.368C336.377 46.68 335.257 51.384 333.017 55.48C330.841 59.512 327.737 62.648 323.705 64.888C319.673 67.128 315.001 68.248 309.689 68.248ZM350.613 3.064H364.533V67H350.613V3.064Z" fill="black"/>
<path d="M57.5852 23.6596C60.669 19.0774 66.2019 17.0218 72.268 18.9994C78.3342 20.9769 77.861 30.5913 79.2911 35.5965C80.7212 40.6017 90.2645 44.0793 92.3036 49.2252C93.9143 53.2902 94.5653 57.9639 87.6802 63.5659C83.1948 65.9237 81.4633 66.9595 73.2569 65.2135C64.1373 61.5178 63.0607 58.3277 60.3074 55.0555C59.4897 53.4468 54.6288 46.5972 54.0664 36.0374C54.3864 31.5283 54.5015 28.2419 57.5852 23.6596Z" fill="#AAD136" stroke="black" stroke-width="2"/>
<path d="M84.4334 52.1C82.9334 53.1 73.6453 58.4591 62.3957 56.0911C64.6227 60.6569 72.1547 64.6845 78.4451 65.3698C81.5679 65.7101 90.6721 63.1966 92.2969 55.0968C90.4771 48.4591 85.9334 51.1 84.4334 52.1Z" fill="#90BD11"/>
<path d="M63.2746 22.5831C70.7273 22.0364 72.5832 22.0043 74.7066 31.0832" stroke="black" stroke-linecap="round"/>
<path d="M77.9334 31.7C74.5918 34.2582 78.4525 40.9596 80.4546 41.7103C82.4567 42.4611 83.1831 41.9503 83.4334 41.7" stroke="black"/>
</svg>
