<svg width="372" height="142" viewBox="0 0 372 142" fill="none" xmlns="http://www.w3.org/2000/svg">
<path d="M23.616 100.048C19.904 100.048 16.352 99.632 12.96 98.8C9.632 97.968 6.752 96.848 4.32 95.44L5.472 82.576C8.352 84.368 11.36 85.776 14.496 86.8C17.696 87.76 20.64 88.24 23.328 88.24C26.4 88.24 28.896 87.6 30.816 86.32C32.736 85.04 33.696 83.344 33.696 81.232C33.696 79.504 33.056 78.192 31.776 77.296C30.496 76.336 28.48 75.312 25.728 74.224L23.424 73.264C23.104 73.136 22.752 73.008 22.368 72.88C21.984 72.688 21.536 72.496 21.024 72.304C17.44 70.832 14.56 69.456 12.384 68.176C10.208 66.832 8.32 64.976 6.72 62.608C5.184 60.24 4.416 57.168 4.416 53.392C4.416 47.248 6.496 42.416 10.656 38.896C14.816 35.376 20.608 33.616 28.032 33.616C33.664 33.616 39.424 34.768 45.312 37.072L43.2 49.744C40.832 48.4 38.272 47.344 35.52 46.576C32.832 45.808 30.272 45.424 27.84 45.424C24.832 45.424 22.496 46.032 20.832 47.248C19.168 48.4 18.336 49.968 18.336 51.952C18.336 53.68 18.912 55.024 20.064 55.984C21.216 56.944 23.072 57.968 25.632 59.056L29.568 60.592C33.28 62 36.352 63.376 38.784 64.72C41.216 66.064 43.296 68.016 45.024 70.576C46.752 73.072 47.616 76.336 47.616 80.368C47.616 86.576 45.504 91.408 41.28 94.864C37.056 98.32 31.168 100.048 23.616 100.048Z" fill="black"/>
<path d="M99.24 50.56H112.488V59.104C114.536 55.712 116.904 53.216 119.592 51.616C122.28 50.016 125.416 49.216 129 49.216C134.312 49.216 138.472 50.816 141.48 54.016C144.488 57.152 145.992 61.536 145.992 67.168V100H132.456V69.28C132.456 66.72 131.816 64.736 130.536 63.328C129.256 61.856 127.528 61.12 125.352 61.12C122.792 61.12 120.36 62.08 118.056 64C115.752 65.92 113.992 68.352 112.776 71.296V100H99.24V50.56ZM155.429 91.072L179.141 62.176H157.061V50.56H195.653V59.392L172.037 88.384H195.653V99.904H155.429V91.072ZM222.25 101.344C217.002 101.344 212.874 99.744 209.866 96.544C206.858 93.344 205.354 88.96 205.354 83.392V50.56H218.89V81.184C218.89 83.808 219.53 85.856 220.81 87.328C222.09 88.736 223.818 89.44 225.994 89.44C228.17 89.44 230.25 88.736 232.234 87.328C234.282 85.92 235.978 84.032 237.322 81.664V50.56H250.858V100H237.322V93.472C235.466 95.968 233.322 97.92 230.89 99.328C228.522 100.672 225.642 101.344 222.25 101.344ZM309.689 101.248C304.377 101.248 299.705 100.128 295.673 97.888C291.641 95.648 288.505 92.512 286.265 88.48C284.089 84.384 283.001 79.68 283.001 74.368V36.064H297.017V73.312C297.017 78.048 298.137 81.824 300.377 84.64C302.681 87.392 305.785 88.768 309.689 88.768C313.593 88.768 316.697 87.392 319.001 84.64C321.305 81.824 322.457 78.048 322.457 73.312V36.064H336.377V74.368C336.377 79.68 335.257 84.384 333.017 88.48C330.841 92.512 327.737 95.648 323.705 97.888C319.673 100.128 315.001 101.248 309.689 101.248ZM350.613 36.064H364.533V100H350.613V36.064Z" fill="black"/>
<path d="M57.1519 56.5597C60.2356 51.9774 65.7685 49.9218 71.8347 51.8994C77.9008 53.8769 77.4276 63.4913 78.8578 68.4965C80.2879 73.5017 89.8312 76.9793 91.8702 82.1252C93.4809 86.1902 94.132 90.8639 87.2468 96.4659C82.7614 98.8237 81.03 99.8595 72.8235 98.1135C63.7039 94.4178 62.6274 91.2277 59.8741 87.9555C59.0563 86.3468 54.1955 79.4972 53.633 68.9374C53.9531 64.4283 54.0681 61.1419 57.1519 56.5597Z" fill="#AAD136" stroke="black" stroke-width="2"/>
<path d="M84 85C82.5 86 73.212 91.3592 61.9623 88.9911C64.1893 93.5569 71.7214 97.5845 78.0117 98.2699C81.1345 98.6101 90.2387 96.0966 91.8636 87.9968C90.0437 81.3591 85.5 84 84 85Z" fill="#90BD11"/>
<path d="M62.8412 55.4831C70.2939 54.9364 72.1498 54.9043 74.2732 63.9832" stroke="black" stroke-linecap="round"/>
<path d="M77.5 64.6C74.1585 67.1582 78.0192 73.8596 80.0212 74.6103C82.0233 75.3611 82.7497 74.8503 83 74.6" stroke="black"/>
</svg>
